<?xml version="1.0" encoding="UTF-8" standalone="no"?>
<!-- Created with Inkscape (http://www.inkscape.org/) -->

<svg
   width="138.12297mm"
   height="36.372437mm"
   viewBox="0 0 138.12297 36.372437"
   version="1.1"
   id="svg1"
   xml:space="preserve"
   xmlns:inkscape="http://www.inkscape.org/namespaces/inkscape"
   xmlns:sodipodi="http://sodipodi.sourceforge.net/DTD/sodipodi-0.dtd"
   xmlns="http://www.w3.org/2000/svg"
   xmlns:svg="http://www.w3.org/2000/svg"><sodipodi:namedview
     id="namedview1"
     pagecolor="#ffffff"
     bordercolor="#999999"
     borderopacity="1"
     inkscape:showpageshadow="0"
     inkscape:pageopacity="0"
     inkscape:pagecheckerboard="0"
     inkscape:deskcolor="#d1d1d1"
     inkscape:document-units="mm" /><defs
     id="defs1" /><g
     inkscape:label="Layer 1"
     inkscape:groupmode="layer"
     id="layer1"
     transform="translate(-25.401576,-12.701593)"><g
       id="g18"><path
         id="path14"
         style="fill:none;stroke:#1ab89c;stroke-width:1.42917;stroke-linecap:square;stroke-linejoin:miter;stroke-dasharray:none;stroke-opacity:1"
         inkscape:transform-center-y="-1.9946509e-06"
         d="m 41.151398,13.526721 -6.378787,3.682739 21.414022,12.394209 v -7.396497 z m -10.236191,5.909812 -4.799045,2.770639 v 5.505092 l 25.271426,14.626822 4.799045,-2.77064 v -5.505091 z m -4.799045,12.735416 v 7.396497 l 15.035236,8.680452 6.378786,-3.682736 z" /><path
         style="font-weight:bold;font-size:12.7px;line-height:1.25;font-family:Lato;-inkscape-font-specification:'Lato, Bold';fill:#3d5a80;fill-opacity:1;stroke-width:0.264583"
         d="m 74.408681,21.730582 v 9.1821 h -1.50495 v -5.9309 q 0,-0.3556 0.0381,-0.76835 l -2.77495,5.21335 q -0.19685,0.37465 -0.60325,0.37465 h -0.2413 q -0.4064,0 -0.60325,-0.37465 l -2.8067,-5.2324 q 0.01905,0.20955 0.03175,0.41275 0.0127,0.2032 0.0127,0.37465 v 5.9309 h -1.50495 v -9.1821 h 1.28905 q 0.1143,0 0.19685,0.0064 0.08255,0.0064 0.14605,0.03175 0.06985,0.0254 0.12065,0.08255 0.05715,0.05715 0.10795,0.1524 l 2.74955,5.09905 q 0.10795,0.2032 0.19685,0.4191 0.09525,0.2159 0.18415,0.4445 0.0889,-0.23495 0.18415,-0.45085 0.09525,-0.22225 0.2032,-0.42545 l 2.71145,-5.08635 q 0.0508,-0.09525 0.10795,-0.1524 0.05715,-0.05715 0.12065,-0.08255 0.06985,-0.0254 0.1524,-0.03175 0.08255,-0.0064 0.19685,-0.0064 z m 5.07364,6.4008 q -0.67945,0.03175 -1.143,0.12065 -0.46355,0.08255 -0.74295,0.2159 -0.2794,0.13335 -0.40005,0.31115 -0.12065,0.1778 -0.12065,0.38735 0,0.41275 0.2413,0.59055 0.24765,0.1778 0.64135,0.1778 0.4826,0 0.83185,-0.17145 0.3556,-0.1778 0.69215,-0.5334 z m -3.5941,-2.82575 q 1.12395,-1.0287 2.7051,-1.0287 0.5715,0 1.02235,0.1905 0.45085,0.18415 0.762,0.5207 0.31115,0.3302 0.4699,0.79375 0.1651,0.46355 0.1651,1.016 v 4.1148 h -0.7112 q -0.22225,0 -0.3429,-0.0635 -0.12065,-0.06985 -0.1905,-0.27305 l -0.1397,-0.4699 q -0.24765,0.22225 -0.4826,0.3937 -0.23495,0.1651 -0.48895,0.2794 -0.254,0.1143 -0.5461,0.17145 -0.28575,0.0635 -0.635,0.0635 -0.41275,0 -0.762,-0.10795 -0.34925,-0.1143 -0.60325,-0.33655 -0.254,-0.22225 -0.3937,-0.55245 -0.1397,-0.3302 -0.1397,-0.76835 0,-0.24765 0.08255,-0.48895 0.08255,-0.24765 0.2667,-0.4699 0.1905,-0.22225 0.48895,-0.4191 0.29845,-0.19685 0.73025,-0.3429 0.43815,-0.14605 1.016,-0.23495 0.57785,-0.09525 1.3208,-0.1143 v -0.381 q 0,-0.65405 -0.2794,-0.9652 -0.2794,-0.3175 -0.80645,-0.3175 -0.381,0 -0.635,0.0889 -0.24765,0.0889 -0.43815,0.2032 -0.1905,0.10795 -0.34925,0.19685 -0.1524,0.0889 -0.3429,0.0889 -0.1651,0 -0.2794,-0.08255 -0.1143,-0.0889 -0.18415,-0.2032 z m 11.264895,0.4699 q -0.06985,0.0889 -0.1397,0.1397 -0.0635,0.0508 -0.1905,0.0508 -0.12065,0 -0.23495,-0.06985 -0.1143,-0.0762 -0.27305,-0.1651 -0.15875,-0.09525 -0.381,-0.1651 -0.2159,-0.0762 -0.53975,-0.0762 -0.41275,0 -0.7239,0.1524 -0.31115,0.14605 -0.5207,0.42545 -0.2032,0.2794 -0.3048,0.67945 -0.1016,0.3937 -0.1016,0.89535 0,0.5207 0.10795,0.9271 0.1143,0.4064 0.32385,0.6858 0.20955,0.27305 0.508,0.4191 0.29845,0.1397 0.6731,0.1397 0.37465,0 0.60325,-0.0889 0.23495,-0.09525 0.3937,-0.2032 0.15875,-0.1143 0.27305,-0.2032 0.12065,-0.09525 0.2667,-0.09525 0.1905,0 0.28575,0.14605 l 0.45085,0.5715 q -0.26035,0.3048 -0.56515,0.51435 -0.3048,0.2032 -0.635,0.3302 -0.32385,0.12065 -0.6731,0.17145 -0.3429,0.0508 -0.6858,0.0508 -0.60325,0 -1.13665,-0.22225 -0.5334,-0.2286 -0.93345,-0.6604 -0.40005,-0.4318 -0.635,-1.0541 -0.2286,-0.62865 -0.2286,-1.42875 0,-0.71755 0.2032,-1.32715 0.20955,-0.61595 0.6096,-1.06045 0.40005,-0.45085 0.9906,-0.70485 0.59055,-0.254 1.3589,-0.254 0.73025,0 1.27635,0.23495 0.55245,0.23495 0.9906,0.6731 z m 3.022605,-0.67945 q 0.381,-0.3556 0.8382,-0.57785 0.4572,-0.22225 1.07315,-0.22225 0.5334,0 0.94615,0.18415 0.41275,0.1778 0.6858,0.508 0.2794,0.32385 0.4191,0.78105 0.14605,0.45085 0.14605,0.99695 v 4.14655 h -1.56845 v -4.14655 q 0,-0.5969 -0.27305,-0.92075 -0.27305,-0.3302 -0.83185,-0.3302 -0.4064,0 -0.762,0.18415 -0.3556,0.18415 -0.6731,0.50165 v 4.7117 h -1.56845 v -9.4361 h 1.56845 z m 7.21994,-0.6985 v 6.5151 h -1.5748 v -6.5151 z m 0.2159,-1.89865 q 0,0.2032 -0.08255,0.381 -0.08255,0.1778 -0.22225,0.31115 -0.13335,0.13335 -0.3175,0.2159 -0.18415,0.0762 -0.3937,0.0762 -0.2032,0 -0.38735,-0.0762 -0.1778,-0.08255 -0.31115,-0.2159 -0.13335,-0.13335 -0.2159,-0.31115 -0.0762,-0.1778 -0.0762,-0.381 0,-0.20955 0.0762,-0.3937 0.08255,-0.18415 0.2159,-0.3175 0.13335,-0.13335 0.31115,-0.20955 0.18415,-0.08255 0.38735,-0.08255 0.20955,0 0.3937,0.08255 0.18415,0.0762 0.3175,0.20955 0.1397,0.13335 0.22225,0.3175 0.08255,0.18415 0.08255,0.3937 z m 2.851149,2.69875 q 0.19685,-0.19685 0.41275,-0.36195 0.22225,-0.17145 0.46355,-0.28575 0.24765,-0.12065 0.52705,-0.18415 0.2794,-0.06985 0.6096,-0.06985 0.5334,0 0.94615,0.18415 0.41275,0.1778 0.6858,0.508 0.2794,0.32385 0.4191,0.78105 0.14605,0.45085 0.14605,0.99695 v 4.14655 h -1.56845 v -4.14655 q 0,-0.5969 -0.27305,-0.92075 -0.27305,-0.3302 -0.83185,-0.3302 -0.4064,0 -0.762,0.18415 -0.3556,0.18415 -0.6731,0.50165 v 4.7117 h -1.568453 v -6.5151 h 0.95885 q 0.304803,0 0.400053,0.28575 z m 9.89329,1.70815 q 0,-0.3048 -0.0889,-0.5715 -0.0825,-0.27305 -0.254,-0.47625 -0.17145,-0.2032 -0.43815,-0.3175 -0.26035,-0.12065 -0.6096,-0.12065 -0.67945,0 -1.07315,0.38735 -0.38735,0.38735 -0.4953,1.09855 z m -2.99085,0.94615 q 0.0381,0.50165 0.1778,0.86995 0.1397,0.36195 0.3683,0.60325 0.2286,0.23495 0.53975,0.3556 0.3175,0.1143 0.6985,0.1143 0.381,0 0.65405,-0.0889 0.2794,-0.0889 0.4826,-0.19685 0.20955,-0.10795 0.36195,-0.19685 0.15875,-0.0889 0.3048,-0.0889 0.19685,0 0.2921,0.14605 l 0.45085,0.5715 q -0.26035,0.3048 -0.5842,0.51435 -0.32385,0.2032 -0.67945,0.3302 -0.34925,0.12065 -0.71755,0.17145 -0.36195,0.0508 -0.70485,0.0508 -0.67945,0 -1.26365,-0.22225 -0.5842,-0.2286 -1.016,-0.66675 -0.4318,-0.4445 -0.67945,-1.0922 -0.24765,-0.65405 -0.24765,-1.5113 0,-0.66675 0.2159,-1.25095 0.2159,-0.59055 0.61595,-1.02235 0.4064,-0.43815 0.98425,-0.69215 0.5842,-0.254 1.31445,-0.254 0.61595,0 1.13665,0.19685 0.5207,0.19685 0.89535,0.57785 0.37465,0.37465 0.5842,0.9271 0.2159,0.5461 0.2159,1.25095 0,0.3556 -0.0762,0.4826 -0.0762,0.12065 -0.2921,0.12065 z m 14.2875,1.651 v 1.4097 h -5.37845 v -9.1821 h 1.70815 v 7.7724 z m 4.83872,-2.59715 q 0,-0.3048 -0.0889,-0.5715 -0.0825,-0.27305 -0.254,-0.47625 -0.17145,-0.2032 -0.43815,-0.3175 -0.26035,-0.12065 -0.6096,-0.12065 -0.67945,0 -1.07315,0.38735 -0.38735,0.38735 -0.4953,1.09855 z m -2.99085,0.94615 q 0.0381,0.50165 0.1778,0.86995 0.1397,0.36195 0.3683,0.60325 0.2286,0.23495 0.53975,0.3556 0.3175,0.1143 0.6985,0.1143 0.381,0 0.65405,-0.0889 0.2794,-0.0889 0.4826,-0.19685 0.20955,-0.10795 0.36195,-0.19685 0.15875,-0.0889 0.3048,-0.0889 0.19685,0 0.2921,0.14605 l 0.45085,0.5715 q -0.26035,0.3048 -0.5842,0.51435 -0.32385,0.2032 -0.67945,0.3302 -0.34925,0.12065 -0.71755,0.17145 -0.36195,0.0508 -0.70485,0.0508 -0.67945,0 -1.26365,-0.22225 -0.5842,-0.2286 -1.016,-0.66675 -0.4318,-0.4445 -0.67945,-1.0922 -0.24765,-0.65405 -0.24765,-1.5113 0,-0.66675 0.2159,-1.25095 0.2159,-0.59055 0.61595,-1.02235 0.4064,-0.43815 0.98425,-0.69215 0.5842,-0.254 1.31445,-0.254 0.61595,0 1.13665,0.19685 0.5207,0.19685 0.89535,0.57785 0.37465,0.37465 0.5842,0.9271 0.2159,0.5461 0.2159,1.25095 0,0.3556 -0.0762,0.4826 -0.0762,0.12065 -0.2921,0.12065 z m 9.01701,0.2794 q -0.67945,0.03175 -1.143,0.12065 -0.46355,0.08255 -0.74295,0.2159 -0.2794,0.13335 -0.40005,0.31115 -0.12065,0.1778 -0.12065,0.38735 0,0.41275 0.2413,0.59055 0.24765,0.1778 0.64135,0.1778 0.4826,0 0.83185,-0.17145 0.3556,-0.1778 0.69215,-0.5334 z m -3.5941,-2.82575 q 1.12395,-1.0287 2.7051,-1.0287 0.5715,0 1.02235,0.1905 0.45085,0.18415 0.762,0.5207 0.31115,0.3302 0.4699,0.79375 0.1651,0.46355 0.1651,1.016 v 4.1148 h -0.7112 q -0.22225,0 -0.3429,-0.0635 -0.12065,-0.06985 -0.1905,-0.27305 l -0.1397,-0.4699 q -0.24765,0.22225 -0.4826,0.3937 -0.23495,0.1651 -0.48895,0.2794 -0.254,0.1143 -0.5461,0.17145 -0.28575,0.0635 -0.635,0.0635 -0.41275,0 -0.762,-0.10795 -0.34925,-0.1143 -0.60325,-0.33655 -0.254,-0.22225 -0.3937,-0.55245 -0.1397,-0.3302 -0.1397,-0.76835 0,-0.24765 0.0825,-0.48895 0.0825,-0.24765 0.2667,-0.4699 0.1905,-0.22225 0.48895,-0.4191 0.29845,-0.19685 0.73025,-0.3429 0.43815,-0.14605 1.016,-0.23495 0.57785,-0.09525 1.3208,-0.1143 v -0.381 q 0,-0.65405 -0.2794,-0.9652 -0.2794,-0.3175 -0.80645,-0.3175 -0.381,0 -0.635,0.0889 -0.24765,0.0889 -0.43815,0.2032 -0.1905,0.10795 -0.34925,0.19685 -0.1524,0.0889 -0.3429,0.0889 -0.1651,0 -0.2794,-0.08255 -0.1143,-0.0889 -0.18415,-0.2032 z m 8.07719,0.22225 q 0.3048,-0.5842 0.7239,-0.9144 0.4191,-0.33655 0.9906,-0.33655 0.45085,0 0.7239,0.19685 l -0.1016,1.17475 q -0.0318,0.1143 -0.0953,0.1651 -0.0571,0.04445 -0.15875,0.04445 -0.0952,0 -0.28575,-0.03175 -0.18415,-0.03175 -0.36195,-0.03175 -0.26035,0 -0.46355,0.0762 -0.2032,0.0762 -0.3683,0.22225 -0.15875,0.1397 -0.28575,0.3429 -0.12065,0.2032 -0.2286,0.46355 v 4.0132 h -1.56845 v -6.5151 h 0.92075 q 0.2413,0 0.33655,0.0889 0.0952,0.08255 0.127,0.3048 z m 4.72439,-0.3302 q 0.19685,-0.19685 0.41275,-0.36195 0.22225,-0.17145 0.46355,-0.28575 0.24765,-0.12065 0.52705,-0.18415 0.2794,-0.06985 0.6096,-0.06985 0.5334,0 0.94615,0.18415 0.41275,0.1778 0.6858,0.508 0.2794,0.32385 0.4191,0.78105 0.14605,0.45085 0.14605,0.99695 v 4.14655 h -1.56845 v -4.14655 q 0,-0.5969 -0.27305,-0.92075 -0.27305,-0.3302 -0.83185,-0.3302 -0.4064,0 -0.762,0.18415 -0.3556,0.18415 -0.6731,0.50165 v 4.7117 h -1.56845 v -6.5151 h 0.95885 q 0.3048,0 0.40005,0.28575 z m 7.32154,-0.8001 v 6.5151 h -1.5748 v -6.5151 z m 0.2159,-1.89865 q 0,0.2032 -0.0825,0.381 -0.0825,0.1778 -0.22225,0.31115 -0.13335,0.13335 -0.3175,0.2159 -0.18415,0.0762 -0.3937,0.0762 -0.2032,0 -0.38735,-0.0762 -0.1778,-0.08255 -0.31115,-0.2159 -0.13335,-0.13335 -0.2159,-0.31115 -0.0762,-0.1778 -0.0762,-0.381 0,-0.20955 0.0762,-0.3937 0.0825,-0.18415 0.2159,-0.3175 0.13335,-0.13335 0.31115,-0.20955 0.18415,-0.08255 0.38735,-0.08255 0.20955,0 0.3937,0.08255 0.18415,0.0762 0.3175,0.20955 0.1397,0.13335 0.22225,0.3175 0.0825,0.18415 0.0825,0.3937 z m 2.85115,2.69875 q 0.19685,-0.19685 0.41275,-0.36195 0.22225,-0.17145 0.46355,-0.28575 0.24765,-0.12065 0.52705,-0.18415 0.2794,-0.06985 0.6096,-0.06985 0.5334,0 0.94615,0.18415 0.41275,0.1778 0.6858,0.508 0.2794,0.32385 0.4191,0.78105 0.14605,0.45085 0.14605,0.99695 v 4.14655 h -1.56845 v -4.14655 q 0,-0.5969 -0.27305,-0.92075 -0.27305,-0.3302 -0.83185,-0.3302 -0.4064,0 -0.762,0.18415 -0.3556,0.18415 -0.6731,0.50165 v 4.7117 h -1.56845 v -6.5151 h 0.95885 q 0.3048,0 0.40005,0.28575 z m 8.07719,2.2987 q 0.2921,0 0.508,-0.0762 0.2159,-0.08255 0.3556,-0.22225 0.14605,-0.1397 0.2159,-0.33655 0.0762,-0.19685 0.0762,-0.4318 0,-0.4826 -0.2921,-0.762 -0.28575,-0.28575 -0.8636,-0.28575 -0.57785,0 -0.86995,0.28575 -0.28575,0.2794 -0.28575,0.762 0,0.2286 0.0699,0.42545 0.0762,0.19685 0.2159,0.3429 0.14605,0.1397 0.36195,0.22225 0.22225,0.0762 0.508,0.0762 z m 1.77165,3.7084 q 0,-0.1905 -0.1143,-0.31115 -0.1143,-0.12065 -0.31115,-0.18415 -0.19685,-0.06985 -0.46355,-0.1016 -0.26035,-0.03175 -0.5588,-0.04445 -0.2921,-0.01905 -0.6096,-0.03175 -0.31115,-0.0127 -0.6096,-0.0508 -0.26035,0.14605 -0.42545,0.3429 -0.15875,0.19685 -0.15875,0.4572 0,0.17145 0.0825,0.3175 0.0889,0.1524 0.27305,0.26035 0.1905,0.10795 0.48895,0.1651 0.29845,0.0635 0.73025,0.0635 0.43815,0 0.75565,-0.06985 0.3175,-0.0635 0.5207,-0.18415 0.20955,-0.1143 0.3048,-0.2794 0.0952,-0.15875 0.0952,-0.34925 z m 1.5621,-6.58495 v 0.5842 q 0,0.2794 -0.33655,0.3429 l -0.5842,0.10795 q 0.13335,0.33655 0.13335,0.7366 0,0.4826 -0.19685,0.8763 -0.1905,0.38735 -0.5334,0.6604 -0.3429,0.27305 -0.8128,0.42545 -0.46355,0.14605 -1.0033,0.14605 -0.1905,0 -0.3683,-0.01905 -0.1778,-0.01905 -0.34925,-0.0508 -0.3048,0.18415 -0.3048,0.41275 0,0.19685 0.1778,0.2921 0.18415,0.0889 0.4826,0.127 0.29845,0.0381 0.67945,0.0508 0.381,0.0064 0.78105,0.0381 0.40005,0.03175 0.78105,0.1143 0.381,0.0762 0.67945,0.24765 0.29845,0.17145 0.47625,0.4699 0.18415,0.2921 0.18415,0.75565 0,0.4318 -0.2159,0.8382 -0.20955,0.4064 -0.61595,0.7239 -0.40005,0.3175 -0.9906,0.508 -0.5842,0.19685 -1.3335,0.19685 -0.7366,0 -1.2827,-0.14605 -0.5461,-0.1397 -0.90805,-0.381 -0.36195,-0.23495 -0.53975,-0.5461 -0.1778,-0.31115 -0.1778,-0.6477 0,-0.4572 0.27305,-0.762 0.2794,-0.31115 0.762,-0.4953 -0.26035,-0.13335 -0.41275,-0.3556 -0.1524,-0.22225 -0.1524,-0.5842 0,-0.14605 0.0508,-0.29845 0.0572,-0.15875 0.15875,-0.31115 0.10795,-0.1524 0.2667,-0.28575 0.15875,-0.1397 0.37465,-0.24765 -0.4953,-0.2667 -0.78105,-0.7112 -0.2794,-0.4445 -0.2794,-1.0414 0,-0.4826 0.1905,-0.86995 0.19685,-0.3937 0.53975,-0.66675 0.34925,-0.2794 0.81915,-0.42545 0.47625,-0.14605 1.03505,-0.14605 0.4191,0 0.7874,0.0889 0.3683,0.08255 0.6731,0.24765 z"
         id="text14"
         aria-label="Machine Learning" /><text
         xml:space="preserve"
         style="font-style:normal;font-weight:normal;font-size:8.46667px;line-height:1.25;font-family:sans-serif;fill:#3d5a80;fill-opacity:1;stroke:none;stroke-width:0.264583"
         x="83.503441"
         y="42.541054"
         id="text15"><tspan
           sodipodi:role="line"
           id="tspan15"
           style="font-style:normal;font-variant:normal;font-weight:300;font-stretch:normal;font-size:8.46667px;font-family:Lato;-inkscape-font-specification:'Lato, Light';font-variant-ligatures:normal;font-variant-caps:normal;font-variant-numeric:normal;font-variant-east-asian:normal;fill:#3d5a80;fill-opacity:1;stroke-width:0.264583"
           x="83.503441"
           y="42.541054">Knowledge Base</tspan></text><path
         id="path15"
         style="color:#000000;fill:#3d5a80;fill-opacity:1;-inkscape-stroke:none"
         d="m 66.33962,40.113776 v 0.265616 h 15.916858 v -0.265616 z m 79.39619,0 v 0.265616 h 15.91841 v -0.265616 z" /></g></g></svg>
